<svg id="visual" viewBox="0 0 900 600" width="900" height="600" xmlns="http://www.w3.org/2000/svg" xmlns:xlink="http://www.w3.org/1999/xlink" version="1.1"><rect x="0" y="0" width="900" height="600" fill="#000000"></rect><path d="M0 279L82 279L82 271L164 271L164 106L245 106L245 228L327 228L327 189L409 189L409 330L491 330L491 90L573 90L573 153L655 153L655 326L736 326L736 91L818 91L818 339L900 339L900 293L900 601L900 601L818 601L818 601L736 601L736 601L655 601L655 601L573 601L573 601L491 601L491 601L409 601L409 601L327 601L327 601L245 601L245 601L164 601L164 601L82 601L82 601L0 601Z" fill="#2c2f32"></path><path d="M0 166L82 166L82 286L164 286L164 391L245 391L245 422L327 422L327 342L409 342L409 426L491 426L491 407L573 407L573 348L655 348L655 160L736 160L736 263L818 263L818 165L900 165L900 156L900 601L900 601L818 601L818 601L736 601L736 601L655 601L655 601L573 601L573 601L491 601L491 601L409 601L409 601L327 601L327 601L245 601L245 601L164 601L164 601L82 601L82 601L0 601Z" fill="#1e2124"></path><path d="M0 441L82 441L82 497L164 497L164 365L245 365L245 446L327 446L327 333L409 333L409 282L491 282L491 288L573 288L573 441L655 441L655 468L736 468L736 425L818 425L818 409L900 409L900 487L900 601L900 601L818 601L818 601L736 601L736 601L655 601L655 601L573 601L573 601L491 601L491 601L409 601L409 601L327 601L327 601L245 601L245 601L164 601L164 601L82 601L82 601L0 601Z" fill="#111518"></path><path d="M0 529L82 529L82 438L164 438L164 521L245 521L245 521L327 521L327 486L409 486L409 513L491 513L491 561L573 561L573 384L655 384L655 438L736 438L736 544L818 544L818 478L900 478L900 422L900 601L900 601L818 601L818 601L736 601L736 601L655 601L655 601L573 601L573 601L491 601L491 601L409 601L409 601L327 601L327 601L245 601L245 601L164 601L164 601L82 601L82 601L0 601Z" fill="#000000"></path></svg>