<svg id="visual" viewBox="0 0 900 600" width="900" height="600" xmlns="http://www.w3.org/2000/svg" xmlns:xlink="http://www.w3.org/1999/xlink" version="1.1"><g stroke-width="1" stroke-linejoin="bevel"><path d="M442 417L442 538L635 526Z" fill="#000309" stroke="#000309"></path><path d="M442 538L590 600L635 526Z" fill="#02080d" stroke="#02080d"></path><path d="M635 526L615 333L442 417Z" fill="#02080d" stroke="#02080d"></path><path d="M590 600L654 600L635 526Z" fill="#000000" stroke="#000000"></path><path d="M635 526L751 371L615 333Z" fill="#000309" stroke="#000309"></path><path d="M442 417L373 600L442 538Z" fill="#090f13" stroke="#090f13"></path><path d="M442 538L373 600L590 600Z" fill="#111518" stroke="#111518"></path><path d="M900 471L751 371L635 526Z" fill="#070d11" stroke="#070d11"></path><path d="M383 81L295 308L442 417Z" fill="#0f1417" stroke="#0f1417"></path><path d="M442 417L233 600L373 600Z" fill="#070d11" stroke="#070d11"></path><path d="M751 371L661 194L615 333Z" fill="#050b0f" stroke="#050b0f"></path><path d="M615 333L541 83L442 417Z" fill="#02080d" stroke="#02080d"></path><path d="M295 308L233 600L442 417Z" fill="#111518" stroke="#111518"></path><path d="M654 600L900 471L635 526Z" fill="#0f1417" stroke="#0f1417"></path><path d="M751 371L900 257L661 194Z" fill="#090f13" stroke="#090f13"></path><path d="M654 600L900 600L900 471Z" fill="#000309" stroke="#000309"></path><path d="M661 194L541 83L615 333Z" fill="#050b0f" stroke="#050b0f"></path><path d="M541 83L383 81L442 417Z" fill="#0c1114" stroke="#0c1114"></path><path d="M900 471L900 257L751 371Z" fill="#090f13" stroke="#090f13"></path><path d="M661 194L799 0L541 83Z" fill="#00060b" stroke="#00060b"></path><path d="M88 248L97 433L295 308Z" fill="#0e1215" stroke="#0e1215"></path><path d="M295 308L97 433L233 600Z" fill="#111518" stroke="#111518"></path><path d="M541 83L481 0L383 81Z" fill="#02080d" stroke="#02080d"></path><path d="M799 0L481 0L541 83Z" fill="#00060b" stroke="#00060b"></path><path d="M383 81L127 221L295 308Z" fill="#090f13" stroke="#090f13"></path><path d="M337 0L127 221L383 81Z" fill="#070d11" stroke="#070d11"></path><path d="M127 221L88 248L295 308Z" fill="#111518" stroke="#111518"></path><path d="M481 0L337 0L383 81Z" fill="#0e1215" stroke="#0e1215"></path><path d="M0 156L0 249L88 248Z" fill="#090f13" stroke="#090f13"></path><path d="M0 249L0 441L97 433Z" fill="#070d11" stroke="#070d11"></path><path d="M97 433L0 600L233 600Z" fill="#111518" stroke="#111518"></path><path d="M900 257L900 82L661 194Z" fill="#0c1114" stroke="#0c1114"></path><path d="M900 82L799 0L661 194Z" fill="#070d11" stroke="#070d11"></path><path d="M0 441L0 600L97 433Z" fill="#090f13" stroke="#090f13"></path><path d="M88 248L0 249L97 433Z" fill="#000309" stroke="#000309"></path><path d="M0 156L88 248L127 221Z" fill="#111518" stroke="#111518"></path><path d="M900 82L900 0L799 0Z" fill="#0f1417" stroke="#0f1417"></path><path d="M120 0L0 156L127 221Z" fill="#090f13" stroke="#090f13"></path><path d="M337 0L120 0L127 221Z" fill="#0e1215" stroke="#0e1215"></path><path d="M120 0L0 0L0 156Z" fill="#02080d" stroke="#02080d"></path></g></svg>